<svg width="40" height="39" viewBox="0 0 40 39" fill="none" xmlns="http://www.w3.org/2000/svg">
<path d="M39.3038 14.103C36.8217 15.6617 35.5935 17.3837 35.6191 19.2691C35.6702 21.23 36.8985 22.952 39.3038 24.4352C32.7788 24.7369 31.0259 27.7284 34.0454 33.4099C28.2368 30.4435 25.1918 32.1655 24.9103 38.576C23.3238 36.1375 21.571 34.9308 19.6519 34.9559C17.6816 35.0062 15.9288 36.2129 14.3935 38.576C14.112 32.1655 11.067 30.4435 5.25842 33.4099C8.27785 27.7284 6.52504 24.7369 0 24.4352C2.48208 22.8766 3.71032 21.1546 3.68473 19.2691C3.63355 17.3334 2.40531 15.6114 0 14.103C6.52504 13.8265 8.27785 10.8475 5.25842 5.16609C11.067 8.10736 14.112 6.38533 14.3935 0C15.9288 2.33794 17.6816 3.53204 19.6519 3.58232C21.571 3.6326 23.3238 2.43849 24.9103 0C25.1918 6.38533 28.2368 8.10736 34.0454 5.16609C31.0259 10.8475 32.7788 13.8265 39.3038 14.103ZM19.6519 7.20235C17.4257 7.20235 15.3658 7.74284 13.4723 8.82382C11.5788 9.90481 10.0882 11.3692 9.00072 13.2169C7.91322 15.0646 7.36946 17.082 7.36946 19.2691C7.36946 21.4562 7.91322 23.4799 9.00072 25.3402C10.0882 27.2005 11.5788 28.6649 13.4723 29.7333C15.3658 30.8017 17.4257 31.3359 19.6519 31.3359C21.8781 31.3359 23.938 30.8017 25.8315 29.7333C27.725 28.6649 29.2156 27.2005 30.3031 25.3402C31.3906 23.4799 31.9343 21.4562 31.9343 19.2691C31.9343 17.082 31.3906 15.0646 30.3031 13.2169C29.2156 11.3692 27.725 9.90481 25.8315 8.82382C23.938 7.74284 21.8781 7.20235 19.6519 7.20235ZM19.6519 28.9225C16.9395 28.9225 14.6238 27.9798 12.7046 26.0944C10.7855 24.209 9.82595 21.9339 9.82595 19.2691C9.82595 16.6044 10.7855 14.3293 12.7046 12.4439C14.6238 10.5584 16.9395 9.61571 19.6519 9.61571C22.3643 9.61571 24.68 10.5584 26.5992 12.4439C28.5183 14.3293 29.4778 16.6044 29.4778 19.2691C29.4778 21.9339 28.5183 24.209 26.5992 26.0944C24.68 27.9798 22.3643 28.9225 19.6519 28.9225Z" fill="#F8FDFF"/>
</svg>
